<?xml version="1.0" encoding="UTF-8"?>
<svg id="Layer_1" data-name="Layer 1" xmlns="http://www.w3.org/2000/svg" viewBox="0 0 31.75 8.72">
  <defs>
    <style>
      .cls-1 {
        fill: #009245;
        stroke-width: 0px;
      }
    </style>
  </defs>
  <path class="cls-1" d="m28.21,2c-1.03-.1-2.08-.35-3.1-.6-.42-.1-.84-.2-1.26-.29-1.5-.33-3.02-.52-4.49-.71-.39-.05-.79-.1-1.18-.15-1.67-.22-3.18-.38-4.68-.07-2.11.43-6.68.79-7.28.84-.9-.1-1.81-.04-2.81.16C2.3,1.4.75,1.88.17,3.39c-.24.62-.22,1.25.05,1.82.94,2.03,4.91,2.97,5.84,3.1.13.02.26.03.41.03,1.4,0,3.47-.8,4.68-2.15.78,0,4.23.01,7.79-.3.22-.02.38-.25.36-.51-.02-.26-.2-.45-.42-.44-3.99.35-7.85.3-7.88.29-.11,0-.21.05-.28.14-1.11,1.34-3.32,2.16-4.57,1.99-.03,0-.07-.01-.11-.02.53-.64,1.26-1.82,1.25-3.43,0-.26-.18-.47-.39-.47h0c-.22,0-.39.21-.39.47,0,1.95-1.42,3.19-1.44,3.21,0,0,0,0,0,.01-1.51-.4-3.63-1.26-4.16-2.39-.15-.31-.15-.62-.02-.96.43-1.11,1.73-1.49,2.67-1.69.95-.2,1.8-.24,2.66-.15,0,0,0,0,0,0,0,0,0,0,0,0,.65.07,1.3.23,1.99.48.23.09.47.18.71.27,1.08.41,2.2.84,3.33.95.18.02.49.07.92.14,2.35.38,8.59,1.41,17.49.46-.41.27-1.31.67-3.24,1.17-.19.05-.35.09-.44.12-.62.19-1.24.4-1.87.6-1.95.65-3.97,1.31-5.99,1.53-2.27.24-4.71.09-7.47-.46-.21-.04-.41.13-.45.39-.04.26.11.5.32.54,1.96.39,3.77.59,5.47.59.75,0,1.48-.04,2.2-.11,2.08-.22,4.14-.9,6.12-1.56.62-.2,1.24-.41,1.85-.6.09-.03.23-.06.41-.11,2.59-.68,4.19-1.33,4.19-2.45,0-1.37-1.89-1.73-3.54-1.89Zm-14.97.85c-.44-.07-.76-.12-.96-.14-1.04-.1-2.11-.51-3.15-.9-.07-.03-.14-.05-.21-.08,1.59-.15,3.52-.37,4.72-.62,1.4-.29,2.85-.13,4.46.08.4.05.79.1,1.19.15,1.46.18,2.97.38,4.44.7.41.09.83.19,1.24.29,1.04.25,2.12.51,3.19.62,1.01.1,1.66.25,2.07.4-8.63.88-14.68-.11-16.98-.49Z"/>
  <circle class="cls-1" cx="3.87" cy="2.78" r=".55"/>
</svg>